<svg width="24" height="24" viewBox="0 0 24 24" fill="none" xmlns="http://www.w3.org/2000/svg">
<g clip-path="url(#clip0_525_2)">
<path d="M12.0001 2.00009C13.3266 2.00444 14.6391 2.27183 15.8616 2.78677C17.0841 3.30172 18.1923 4.05401 19.1221 5.00009H15.0001V7.00009H20.1431C20.6355 6.99956 21.1075 6.80374 21.4556 6.4556C21.8038 6.10746 21.9996 5.63543 22.0001 5.14309V8.75784e-05H20.0001V3.07809C18.2776 1.52695 16.1421 0.508743 13.8525 0.146896C11.563 -0.21495 9.21756 0.0950946 7.10065 1.03945C4.98373 1.98381 3.18618 3.52193 1.92588 5.46738C0.665581 7.41283 -0.0033621 9.68209 0.000135718 12.0001H2.00014C2.00305 9.34882 3.05755 6.80697 4.93228 4.93224C6.80702 3.0575 9.34886 2.003 12.0001 2.00009V2.00009Z" fill="white"/>
<path d="M22.0001 12C22.003 13.9853 21.414 15.9265 20.3084 17.5755C19.2028 19.2245 17.6308 20.5065 15.7931 21.2578C13.9554 22.0091 11.9355 22.1956 9.99129 21.7934C8.04711 21.3913 6.26693 20.4187 4.87812 19H9.00012V17H3.85712C3.36478 17.0005 2.89275 17.1963 2.54461 17.5445C2.19647 17.8926 2.00065 18.3647 2.00012 18.857V24H4.00012V20.922C5.72265 22.4731 7.85813 23.4913 10.1477 23.8532C12.4373 24.215 14.7827 23.905 16.8996 22.9606C19.0165 22.0163 20.8141 20.4782 22.0744 18.5327C23.3347 16.5873 24.0036 14.318 24.0001 12H22.0001Z" fill="white"/>
</g>
<defs>
<clipPath id="clip0_525_2">
<rect width="24" height="24" fill="rgba(255,255,255,0.6)"/>
</clipPath>
</defs>
</svg>
